<?xml version="1.0" standalone="no"?>
<!DOCTYPE svg PUBLIC "-//W3C//DTD SVG 1.1//EN" "http://www.w3.org/Graphics/SVG/1.1/DTD/svg11.dtd" >
<svg xmlns="http://www.w3.org/2000/svg">
<metadata>Generated by IcoMoon</metadata>
<defs>
<font id="nail-maryi" horiz-adv-x="1024">
<font-face units-per-em="1024" ascent="960" descent="-64" />
<missing-glyph horiz-adv-x="1024" />
<glyph unicode="&#x20;" horiz-adv-x="512" d="" />
<glyph unicode="&#xe900;" glyph-name="receipt" horiz-adv-x="928" d="M102.435-59.663q-43.681 0-73.059 29.378t-29.378 73.059v57.245q0 19.592 12.809 32.383t32.383 12.809h135.594v793.915q0 7.537 5.271 9.787t11.298-0.755l45.192-25.618q6.027-3.004 10.543-3.004t10.543 3.004l54.241 30.133q6.027 3.004 10.543 3.004t10.543-3.004l54.241-30.133q6.027-3.004 10.543-3.004t10.543 3.004l54.241 30.133q6.027 3.004 10.543 3.004t10.543-3.004l54.241-30.133q6.027-3.004 10.543-3.004t10.543 3.004l54.241 30.133q6.027 3.004 10.543 3.004t10.543-3.004l54.241-30.133q6.027-3.004 10.543-3.004t10.543 3.004l54.241 30.133q6.027 3.004 10.543 3.004t10.543-3.004l54.241-30.133q6.027-3.004 10.543-3.004t10.543 3.004l45.192 25.618q6.027 3.004 11.298 0.755t5.271-9.787v-896.37q0-43.681-29.378-73.059t-73.059-29.378h-723.123zM825.541-17.475q25.618 0 42.943 17.325t17.325 42.943v843.64h-662.855v-741.203h497.146q19.592 0 32.383-12.809t12.809-32.383v-57.245q0-25.618 17.325-42.943t42.943-17.325zM334.423 726.732h268.164q9.031 0 15.059-6.027t6.027-15.059-6.027-15.059-15.059-6.027h-268.164q-9.031 0-15.059 6.027t-6.027 15.059 6.027 15.059 15.059 6.027zM334.423 545.947h268.164q9.031 0 15.059-6.027t6.027-15.059-6.027-15.059-15.059-6.027h-268.164q-9.031 0-15.059 6.027t-6.027 15.059 6.027 15.059 15.059 6.027zM756.242 663.46q-16.569 0-29.378 12.809t-12.809 29.378 12.809 29.378 29.378 12.809 29.378-12.809 12.809-29.378-12.809-29.378-29.378-12.809zM756.242 482.675q-16.569 0-29.378 12.809t-12.809 29.378 12.809 29.378 29.378 12.809 29.378-12.809 12.809-29.378-12.809-29.378-29.378-12.809z" />
<glyph unicode="&#xe901;" glyph-name="recipt-outline" horiz-adv-x="944" d="M107.371-64q-44.061 0-73.686 29.625t-29.625 73.686v57.732q0 19.749 12.913 32.665t32.665 12.913h136.736v800.662q0 7.595 5.317 9.876t11.395-0.758l45.579-25.825q6.078-3.040 10.636-3.040t10.636 3.040l54.692 30.384q6.078 3.040 10.636 3.040t10.636-3.040l54.692-30.384q6.078-3.040 10.636-3.040t10.636 3.040l54.692 30.384q6.078 3.040 10.636 3.040t10.636-3.040l54.692-30.384q6.078-3.040 10.636-3.040t10.636 3.040l54.692 30.384q6.078 3.040 10.636 3.040t10.636-3.040l54.692-30.384q6.078-3.040 10.636-3.040t10.636 3.040l54.692 30.384q6.078 3.040 10.636 3.040t10.636-3.040l54.692-30.384q6.078-3.040 10.636-3.040t10.636 3.040l45.579 25.825q6.078 3.040 11.395 0.758t5.317-9.876v-903.97q0-44.061-29.625-73.686t-73.686-29.625h-729.253zM836.627-21.462q25.825 0 43.298 17.472t17.472 43.298v850.795h-668.483v-747.485h501.361q19.749 0 32.665-12.913t12.913-32.665v-57.732q0-25.825 17.472-43.298t43.298-17.472zM341.343 729.062h270.431q9.118 0 15.195-6.078t6.078-15.195-6.078-15.195-15.195-6.078h-270.431q-9.118 0-15.195 6.078t-6.078 15.195 6.078 15.195 15.195 6.078zM341.343 546.75h270.431q9.118 0 15.195-6.078t6.078-15.195-6.078-15.195-15.195-6.078h-270.431q-9.118 0-15.195 6.078t-6.078 15.195 6.078 15.195 15.195 6.078zM766.741 665.253q-16.712 0-29.625 12.913t-12.913 29.625 12.913 29.625 29.625 12.913 29.625-12.913 12.913-29.625-12.913-29.625-29.625-12.913zM766.741 482.94q-16.712 0-29.625 12.913t-12.913 29.625 12.913 29.625 29.625 12.913 29.625-12.913 12.913-29.625-12.913-29.625-29.625-12.913zM107.371-21.462h625.945v121.543h-686.714v-60.77q0-25.825 17.472-43.298t43.298-17.472zM46.601-21.462v0z" />
<glyph unicode="&#xe902;" glyph-name="home" horiz-adv-x="944" d="M6.86-15.402v597.045q0 24.732 11.064 46.861t30.59 36.447l361.004 274.223q27.214 20.827 62.203 20.827t62.76-20.827l361.004-274.223q19.525-14.319 30.59-36.447t11.064-46.861v-597.045q0-19.091-14.753-33.844t-33.844-14.753h-242.983q-22.129 0-37.098 14.969t-14.969 37.098v326.291q0 22.129-14.969 37.098t-37.098 14.969h-138.847q-22.129 0-37.098-14.969t-14.969-37.098v-326.291q0-22.129-14.969-37.098t-37.098-14.969h-242.983q-19.091 0-33.844 14.753t-14.753 33.844z" />
<glyph unicode="&#xe903;" glyph-name="home-outline" horiz-adv-x="960" d="M63.458-15.403h270.753v354.061q0 22.129 14.969 37.098t37.098 14.969h187.444q22.129 0 37.098-14.969t14.969-37.098v-354.061h270.753v597.045q0 13.884-6.074 25.167t-16.488 19.96l-361.004 272.489q-13.884 12.15-32.977 12.15t-32.977-12.15l-361.004-272.489q-10.414-8.677-16.488-19.96t-6.074-25.167v-597.045zM14.861-15.403v597.045q0 24.732 11.064 46.861t30.59 36.447l361.004 274.223q27.214 20.827 62.203 20.827t62.76-20.827l361.004-274.223q19.525-14.319 30.59-36.447t11.064-46.861v-597.045q0-19.091-14.753-33.844t-33.844-14.753h-267.282q-22.129 0-37.098 14.969t-14.969 37.098v354.061h-194.387v-354.061q0-22.129-14.969-37.098t-37.098-14.969h-267.282q-19.091 0-33.844 14.753t-14.753 33.844z" />
<glyph unicode="&#xe904;" glyph-name="favorite" d="M510.528 52.23q-16.183 0-31.632 5.886t-27.218 17.655l-57.379 51.494q-157.425 142.713-275.862 275.862t-118.437 271.448q0 104.459 71.356 175.817t175.817 71.356q60.321 0 130.207-32.368t134.621-132.414q64.735 100.046 134.621 132.414t130.207 32.368q104.459 0 175.817-71.356t71.356-175.817q0-142.713-125.058-278.804t-270.713-268.506l-57.379-51.494q-11.77-11.77-27.954-17.655t-32.368-5.886z" />
<glyph unicode="&#xe905;" glyph-name="favorite-outline" d="M510.527 13.241q-16.183 0-31.632 5.886t-27.218 17.655l-57.379 51.494q-157.425 142.713-275.862 275.862t-118.437 271.448q0 104.459 71.356 175.817t175.817 71.356q60.321 0 130.207-32.368t134.621-132.414q64.735 100.046 134.621 132.414t130.207 32.368q104.459 0 175.817-71.356t71.356-175.817q0-142.713-125.058-278.804t-270.713-268.506l-57.379-51.494q-11.77-11.77-27.954-17.655t-32.368-5.886zM491.402 673.839q-55.908 92.69-115.494 130.207t-128.735 37.517q-88.276 0-147.127-58.851t-58.851-147.127q0-61.793 31.632-125.058t89.748-132.414 139.034-145.655 179.494-166.252q13.241-11.77 30.897-11.77t30.897 11.77q98.575 89.748 179.494 166.252t139.034 145.655 89.748 132.414 31.632 125.058q0 88.276-58.851 147.127t-147.127 58.851q-69.149 0-128.735-37.517t-115.494-130.207q-2.942-5.886-8.828-8.828t-11.77-2.942-11.77 2.942-8.828 8.828z" />
<glyph unicode="&#xe906;" glyph-name="bookmark-outline" horiz-adv-x="864" d="M432 59.461l-263.572-113.482q-54.911-23.795-104.331 9.151t-49.42 91.518v803.53q0 47.589 31.116 78.706t78.706 31.116h615.002q47.589 0 78.706-31.116t31.116-78.706v-803.53q0-58.571-49.42-91.518t-104.331-9.151l-263.572 113.482zM432 118.034l283.706-122.635q29.286-12.813 55.826 5.491t26.541 49.42v799.869q0 21.964-18.304 40.269t-40.269 18.304h-615.002q-21.964 0-40.269-18.304t-18.304-40.269v-799.869q0-31.116 26.541-49.42t55.826-5.491l283.706 122.635zM432 908.752v0z" />
<glyph unicode="&#xe907;" glyph-name="bookmark" horiz-adv-x="864" d="M432.002 59.461l-263.573-113.483q-54.911-23.794-104.332 9.151t-49.421 91.518v803.531q0 47.587 31.117 78.705t78.705 31.117h615.004q47.587 0 78.705-31.117t31.117-78.705v-803.531q0-58.572-49.421-91.518t-104.332-9.151l-263.573 113.483z" />
<glyph unicode="&#xe908;" glyph-name="bookmarked-outline" horiz-adv-x="896" d="M365.154 39.483l-220.924-95.119q-46.026-19.945-87.449 7.67t-41.423 76.709v673.511q0 39.889 26.081 65.971t65.971 26.081h515.488q39.889 0 65.971-26.081t26.081-65.971v-673.511q0-49.094-41.423-76.709t-87.449-7.67l-220.924 95.119zM365.154 88.577l237.799-102.791q24.548-10.74 46.792 4.603t22.246 41.423v670.441q0 18.41-15.342 33.753t-33.753 15.342h-515.488q-18.41 0-33.753-15.342t-15.342-33.753v-670.441q0-26.081 22.246-41.423t46.792-4.603l237.799 102.791zM837.684 73.236v794.711q0 18.41-15.342 33.753t-33.753 15.342h-589.13v42.958h589.13q39.889 0 65.971-26.081t26.081-65.971v-794.711h-42.958zM365.154 751.348v0z" />
<glyph unicode="&#xe909;" glyph-name="bookmarked" horiz-adv-x="880" d="M357.154 39.483l-220.924-95.119q-46.026-19.945-87.449 7.67t-41.423 76.709v673.511q0 39.889 26.081 65.971t65.971 26.081h515.488q39.889 0 65.971-26.081t26.081-65.971v-673.511q0-49.094-41.423-76.709t-87.449-7.67l-220.924 95.119zM829.685 73.236v794.711q0 18.41-15.342 33.753t-33.753 15.342h-589.13v42.958h589.13q39.889 0 65.971-26.081t26.081-65.971v-794.711h-42.958z" />
<glyph unicode="&#xe90a;" glyph-name="girl-face-outline" d="M423.454 286.319q-26.948 0-45.553 18.607t-18.607 45.553 18.607 45.553 45.553 18.607 45.553-18.607 18.607-45.553-18.607-45.553-45.553-18.607zM731.424 286.319q-26.948 0-45.553 18.607t-18.607 45.553 18.607 45.553 45.553 18.607 45.553-18.607 18.607-45.553-18.607-45.553-45.553-18.607zM577.439-8.822q171.948 0 291.288 119.338t119.338 291.288q0 30.797-3.85 59.668t-14.116 55.82q-26.948-6.417-53.895-9.625t-56.46-3.208q-116.772 0-220.714 50.045t-177.082 139.87q-41.061-100.090-117.414-173.874t-177.726-110.999v-7.699q0-171.948 119.338-291.288t291.288-119.338zM445.268 793.184q65.444-136.021 186.708-194.407t227.769-58.385q25.663 0 50.686 2.565t49.404 8.983q-47.479 121.905-153.343 191.198t-229.052 69.293q-38.496 0-69.935-4.491t-62.236-14.756zM169.378 449.285q83.409 34.647 174.517 121.262t101.374 222.636q-114.206-39.78-187.347-131.53t-88.542-212.37zM141.146 499.329q25.663 112.924 100.732 198.255t184.14 123.831q-29.514 37.214-73.647 60.311t-97.463 23.098q-91.947 0-155.466-63.616t-63.52-155.811q0-58.962 28.871-107.758t76.35-78.309zM577.662-44.75q-92.614 0-174.172 35.166-81.56 35.166-141.89 95.45t-95.523 141.781-35.194 174.157q0 15.145 0.642 30.027t3.208 29q-61.594 32.081-98.164 91.979-36.57 59.9-36.57 132.582 0 106.507 74.427 180.932t180.932 74.427q64.178 0 118.064-29.514t88.534-78.276q28.232 7.699 57.148 11.549t58.342 3.85q92.661 0 174.157-35.147t141.781-95.404 95.45-141.71 35.166-174.070-35.147-174.172q-35.148-81.56-95.404-141.889t-141.71-95.525-174.070-35.194z" />
<glyph unicode="&#xe90b;" glyph-name="girl-face" d="M423.457 286.316q-26.947 0-45.554 18.607t-18.607 45.554 18.607 45.554 45.554 18.607 45.554-18.607 18.607-45.554-18.607-45.554-45.554-18.607zM731.427 286.316q-26.947 0-45.554 18.607t-18.607 45.554 18.607 45.554 45.554 18.607 45.554-18.607 18.607-45.554-18.607-45.554-45.554-18.607zM577.442-8.822q171.949 0 291.287 119.338t119.338 291.287q0 30.797-3.85 59.669t-14.115 55.819q-26.947-6.416-53.895-9.624t-56.461-3.208q-116.772 0-220.712 50.045t-177.082 139.87q-41.062-100.090-117.413-173.874t-177.724-110.998v-7.699q0-171.949 119.338-291.287t291.287-119.338zM577.666-44.751q-92.615 0-174.172 35.166-81.559 35.166-141.891 95.451-60.33 60.285-95.523 141.781t-35.193 174.157q0 15.145 0.641 30.028t3.208 29q-61.594 32.081-98.165 91.978-36.571 59.899-36.571 132.583 0 106.506 74.426 180.932t180.932 74.426q64.178 0 118.064-29.513t88.533-78.276q28.231 7.699 57.148 11.549t58.341 3.85q92.66 0 174.157-35.148 81.496-35.149 141.781-95.404t95.451-141.711 35.166-174.069-35.148-174.172q-35.149-81.559-95.404-141.89t-141.711-95.525-174.069-35.193z" />
<glyph unicode="&#xe90c;" glyph-name="send-outline" d="M988.958 393.491l-907.194-381.567q-29.202-11.681-55.483 4.868t-26.281 47.695v767.027q0 31.149 26.281 47.695t55.483 4.868l907.194-381.567q35.042-15.574 35.042-54.51t-35.042-54.51zM54.51 58.648l922.767 389.353-922.767 389.353v-311.483l350.418-77.871-350.418-77.871v-311.483zM54.51 58.648v0z" />
<glyph unicode="&#xe90d;" glyph-name="arrow-right" horiz-adv-x="1317" d="M752.852 938.577c28.562 28.564 74.876 28.564 103.439 0l438.857-438.857c28.562-28.564 28.562-74.876 0-103.44l-438.857-438.856c-28.562-28.562-74.876-28.562-103.439 0s-28.564 74.876 0 103.439l313.995 313.995h-993.704c-40.396 0-73.143 32.748-73.143 73.143s32.747 73.143 73.143 73.143h993.704l-313.995 313.994c-28.564 28.564-28.564 74.876 0 103.44z" />
<glyph unicode="&#xe90e;" glyph-name="schedule-outline" d="M535.814 481.202v300.192q0 10.12-6.767 16.967t-16.772 6.847-17.047-6.847-7.041-16.967v-305.345q0-9.119 3.321-16.18 3.32-7.060 9.617-13.358l214.097-214.097q8.588-8.587 17.002-8.415t17.919 9.674 9.504 17.346-10.003 17.721l-213.826 212.463zM512.2-63.999q-105.746 0-198.844 39.946-93.096 39.947-163.24 110.023-70.143 70.076-110.129 163.298t-39.986 199.215 39.946 199.369q39.947 93.375 110.023 162.776 70.076 69.398 163.298 109.386t199.215 39.986 199.377-40.303q93.386-40.305 162.466-109.398t109.376-162.495q40.296-93.405 40.296-199.603 0-105.746-39.946-198.844-39.947-93.096-109.279-163.24t-162.811-110.129-199.765-39.986zM512.71-16.372q192.71 0 328.186 136.186t135.476 328.896-135.476 328.186-328.186 135.476-328.896-135.476-136.186-328.186 136.186-328.896 328.896-136.186z" />
<glyph unicode="&#xe90f;" glyph-name="photo-library" d="M340.562 315.948h523.583l-166.11 220.091-147.809-185.339-95.682 113.52-113.983-148.271zM278.009 116.709q-41.585 0-69.443 27.858t-27.858 69.443v648.689q0 41.585 27.858 69.443t69.443 27.858h648.689q41.585 0 69.443-27.858t27.858-69.443v-648.689q0-41.585-27.858-69.443t-69.443-27.858h-648.689zM97.303-63.997q-41.585 0-69.443 27.858t-27.858 69.443v708.925h60.236v-708.925q0-13.9 11.584-25.484t25.484-11.584h708.925v-60.236h-708.925z" />
<glyph unicode="&#xe910;" glyph-name="photo-library-outline" horiz-adv-x="960" d="M319.276 324.202h490.862l-155.732 206.336-138.571-173.756-89.703 106.424-106.86-139.004zM260.63 137.414q-38.985 0-65.103 26.118t-26.118 65.103v608.149q0 38.985 26.118 65.103t65.103 26.118h608.149q38.985 0 65.103-26.118t26.118-65.103v-608.149q0-38.985-26.118-65.103t-65.103-26.118h-608.149zM260.63 193.884h608.149q13.032 0 23.892 10.86t10.86 23.892v608.149q0 13.031-10.86 23.892t-23.892 10.86h-608.149q-13.031 0-23.892-10.86t-10.86-23.892v-608.149q0-13.031 10.86-23.892t23.892-10.86zM91.22-32.002q-38.985 0-65.103 26.118t-26.118 65.103v664.621h56.473v-664.621q0-13.032 10.86-23.892t23.892-10.86h664.621v-56.473h-664.621zM225.879 871.537v0z" />
<glyph unicode="&#xe911;" glyph-name="schedule" d="M535.814 481.202v300.192q0 10.12-6.767 16.967t-16.772 6.847-17.047-6.847-7.041-16.967v-305.345q0-9.119 3.321-16.18 3.32-7.060 9.617-13.358l214.097-214.097q8.588-8.587 17.002-8.415t17.919 9.674 9.504 17.346-10.003 17.721l-213.826 212.463zM512.2-63.999q-105.746 0-198.844 39.946-93.096 39.947-163.24 110.023-70.143 70.076-110.129 163.298t-39.986 199.215 39.946 199.369q39.947 93.375 110.023 162.776 70.076 69.398 163.298 109.386t199.215 39.986 199.377-40.303q93.386-40.305 162.466-109.398t109.376-162.495q40.296-93.405 40.296-199.603 0-105.746-39.946-198.844-39.947-93.096-109.279-163.24t-162.811-110.129-199.765-39.986z" />
<glyph unicode="&#xe912;" glyph-name="logout" d="M294.845 960h63.555c28.277 0 51.2-22.923 51.2-51.2s-22.923-51.2-51.2-51.2h-61.44c-43.857 0-73.67-0.040-96.715-1.923-22.447-1.834-33.926-5.158-41.934-9.239-19.268-9.817-34.933-25.483-44.75-44.75-4.080-8.008-7.405-19.487-9.239-41.934-1.883-23.045-1.923-52.858-1.923-96.715v-430.080c0-43.858 0.040-73.672 1.923-96.717 1.834-22.446 5.158-33.925 9.239-41.933 9.817-19.267 25.483-34.934 44.75-44.749 8.008-4.081 19.487-7.404 41.934-9.236 23.045-1.884 52.858-1.925 96.715-1.925h61.44c28.277 0 51.2-22.922 51.2-51.2s-22.923-51.2-51.2-51.2h-63.556c-41.214 0-75.229 0-102.938 2.263-28.78 2.35-55.235 7.398-80.084 20.060-38.536 19.635-69.866 50.964-89.501 89.498-12.661 24.852-17.708 51.308-20.059 80.087-2.264 27.709-2.263 61.722-2.263 102.938v434.309c-0.001 41.214-0.001 75.23 2.263 102.939 2.351 28.779 7.398 55.235 20.059 80.083 19.635 38.536 50.965 69.866 89.501 89.501 24.849 12.661 51.304 17.708 80.084 20.059 27.709 2.264 61.724 2.263 102.939 2.263zM680.596 740.204c19.994 19.995 52.413 19.995 72.407 0l256-256c19.994-19.995 19.994-52.414 0-72.408l-256-256c-19.994-19.994-52.413-19.994-72.407 0s-19.994 52.413 0 72.407l168.596 168.596h-490.793c-28.277 0-51.2 22.922-51.2 51.2 0 28.277 22.923 51.2 51.2 51.2h490.793l-168.596 168.596c-19.994 19.995-19.994 52.413 0 72.408z" />
<glyph unicode="&#xe913;" glyph-name="support" d="M527.582-6.121q-11.298 0-18.865 7.847-7.569 7.847-7.569 19.145 0 10.741 7.569 18.587 7.568 7.847 18.865 7.847h350.22q13.912 0 24.765 8.904t10.852 23.373v394.24q0 160.669-118.705 268.438t-282.714 107.77q-164.174 0-282.879-107.77t-118.705-268.438v-295.346q0-11.298-7.849-19.145-7.847-7.847-18.587-7.847-34.449 0-59.214 23.095t-24.765 57.545v107.464q0 25.767 16.862 44.689t40.126 32.055l1.002 70.234q2.838 88.265 40.654 164.452 37.814 76.188 99.171 132.146t142.805 87.456q81.447 31.498 171.38 31.498t170.937-31.498q81.001-31.498 142.72-87.291 61.719-55.79 99.173-131.616t41.016-164.648l1.001-69.676q22.151-10.072 39.652-27.715t17.502-42.686v-123.381q0-25.044-17.502-42.686t-39.652-27.715v-73.628q0-35.951-25.988-60.828-25.99-24.876-63.054-24.876h-350.22zM363.13 362.352q-17.419 0-29.997 11.464-12.576 11.464-12.576 28.327t12.576 29.162q12.579 12.3 29.997 12.3 16.863 0 29.439-12.3 12.579-12.3 12.579-29.162t-12.579-28.327q-12.576-11.464-29.439-11.464zM661.426 362.352q-17.419 0-29.995 11.464-12.579 11.464-12.579 28.327t12.579 29.162q12.576 12.3 29.995 12.3 16.863 0 29.441-12.3 12.576-12.3 12.576-29.162t-12.576-28.327q-12.579-11.464-29.441-11.464zM212.312 453.399q-6.511 126.441 83.145 215.458 89.657 89.015 219.271 89.015 108.854 0 193.892-65.502 85.036-65.504 104.348-171.633-113.196 1.614-210.394 57.043-97.196 55.43-148.786 155.604-20.201-97.67-84.785-170.937t-156.689-109.049z" />
<glyph unicode="&#xe914;" glyph-name="login" d="M540.034-66.497q-12.673 0-21.478 8.804-8.806 8.804-8.806 21.479 0 12.051 8.806 20.854 8.804 8.804 21.478 8.804h381.565q14.985 0 27.473 12.488t12.488 27.473v824.195q0 14.985-12.488 27.473t-27.473 12.488h-381.565q-12.673 0-21.478 8.804-8.806 8.804-8.806 21.479 0 12.051 8.806 20.854 8.804 8.804 21.478 8.804h381.565q42.106 0 71.005-28.897 28.897-28.899 28.897-71.005v-824.195q0-42.106-28.897-71.005-28.899-28.897-71.005-28.897h-381.565zM576.374 415.532h-543.592q-12.676 0-21.479 8.804t-8.804 21.479q0 12.051 8.804 20.854t21.479 8.804h543.592l-127.208 127.209q-8.909 8.284-9.532 20.772-0.626 12.488 9.74 22.010 9.74 9.521 21.166 9.304 11.427-0.219 21.408-9.576l164.421-164.419q14.976-14.976 14.976-35.416t-14.923-35.069l-164.594-164.593q-9.424-8.8-21.288-9.237-11.862-0.437-21.166 9.304-10.366 9.304-10.272 20.948t9.73 21.905l127.542 126.918z" />
<glyph unicode="&#xe915;" glyph-name="close" d="M512 388.731l-439.361-439.361q-11.756-11.756-28.829-12.562t-30.44 12.562-13.369 29.635 13.369 29.635l439.361 439.361-439.361 439.361q-11.756 11.756-12.562 28.829t12.562 30.44 29.635 13.369 29.635-13.369l439.361-439.361 439.361 439.361q11.756 11.756 28.829 12.562t30.44-12.562 13.369-29.635-13.369-29.635l-439.361-439.361 439.361-439.361q11.756-11.756 12.562-28.829t-12.562-30.44-29.635-13.369-29.635 13.369l-439.361 439.361z" />
</font>
</defs>
</svg>
