<svg width="298" height="86" viewBox="0 0 298 86" fill="none" xmlns="http://www.w3.org/2000/svg">
<path d="M42.8717 4.41678C48.1203 4.41678 53.1181 5.48216 57.6695 7.39357L60.0196 3.73525C54.7711 1.41649 48.9741 0.131775 42.8717 0.131775C36.8085 0.131775 31.0429 1.40866 25.8179 3.69609L28.1758 7.34657C32.7037 5.45866 37.6702 4.41678 42.8717 4.41678Z" fill="#14142B"/>
<path d="M70.8695 50.8547C64.8689 48.9119 58.4297 52.2099 56.4869 58.2105L47.298 43.7809L44.7913 47.6742L57.7246 67.8615C57.7325 67.8694 57.7403 67.885 57.7403 67.8929C59.119 70.0393 61.2184 71.747 63.8349 72.5931C69.8354 74.5358 76.2747 71.2378 78.2175 65.2373C80.168 59.2367 76.8701 52.7974 70.8695 50.8547ZM74.2536 63.9525C73.0237 67.7597 68.9346 69.8513 65.1274 68.6214C61.3203 67.3915 59.2287 63.3023 60.4586 59.4952C61.6884 55.688 65.7776 53.5965 69.5848 54.8263C73.3998 56.0562 75.4835 60.1454 74.2536 63.9525Z" fill="#14142B"/>
<path d="M63.2158 5.30201L42.9659 36.8246L22.6297 5.255C9.36732 12.4463 0.366455 26.492 0.366455 42.6372C0.366455 66.1147 19.4022 85.1426 42.8718 85.1426C52.5934 85.1426 61.5551 81.876 68.7151 76.3846C68.2686 76.4237 67.822 76.4551 67.3755 76.4551C65.848 76.4551 64.3204 76.2122 62.8242 75.7344C62.6518 75.6795 62.4795 75.6169 62.3071 75.5542C56.6121 78.9227 49.9691 80.8576 42.8718 80.8576C34.1765 80.8576 26.1548 77.9513 19.7312 73.0553C20.4519 72.9691 21.1805 72.8124 21.9012 72.5774C24.5176 71.7314 26.6249 70.0315 27.9957 67.8772C28.0036 67.8694 28.0114 67.8537 28.0192 67.8459L40.9291 47.7761L47.3762 37.749L64.5006 11.1224C74.5198 18.016 81.0844 29.555 81.0844 42.6372C81.0844 46.3973 80.5361 50.0243 79.5255 53.4555C80.7476 55.2572 81.5623 57.3175 81.8991 59.4795C84.1317 54.3172 85.3694 48.6221 85.3694 42.6372C85.3851 26.5312 76.4234 12.5168 63.2158 5.30201ZM20.6243 68.6214C18.0157 69.4675 15.2661 68.7468 13.4095 66.9842C12.9473 66.428 12.5086 65.8561 12.0778 65.2764C11.8428 64.8613 11.6547 64.4226 11.4981 63.9526C10.2682 60.1454 12.3519 56.0562 16.1669 54.8264C19.9741 53.5965 24.0633 55.6802 25.2931 59.4952C26.523 63.3024 24.4314 67.3837 20.6243 68.6214ZM29.257 58.2105C27.3142 52.2099 20.875 48.9198 14.8744 50.8547C11.4432 51.9592 8.90514 54.5365 7.71442 57.6621C5.74034 53.0481 4.64363 47.9719 4.64363 42.6372C4.64363 29.555 11.2161 18.016 21.2431 11.1224L40.4513 40.7258L29.257 58.2105ZM42.8718 41.8147C42.0101 41.8147 41.313 41.1175 41.313 40.2558C41.313 39.3941 42.0101 38.6969 42.8718 38.6969C43.7336 38.6969 44.4307 39.3941 44.4307 40.2558C44.4307 41.1175 43.7336 41.8147 42.8718 41.8147Z" fill="#14142B"/>
<circle cx="42.868" cy="40.2316" r="2.19837" fill="#14142B"/>
<path d="M117.576 61.023C113.779 61.023 110.621 60.063 108.104 58.143C105.587 56.223 104.115 53.6203 103.688 50.335H109.192C109.533 51.999 110.408 53.4497 111.816 54.687C113.267 55.8817 115.208 56.479 117.64 56.479C119.901 56.479 121.565 56.0097 122.632 55.071C123.699 54.0897 124.232 52.9377 124.232 51.615C124.232 49.695 123.528 48.415 122.12 47.775C120.755 47.135 118.813 46.559 116.296 46.047C114.589 45.7057 112.883 45.215 111.176 44.575C109.469 43.935 108.04 43.039 106.888 41.887C105.736 40.6923 105.16 39.135 105.16 37.215C105.16 34.4417 106.184 32.1803 108.232 30.431C110.323 28.639 113.139 27.743 116.68 27.743C120.051 27.743 122.803 28.5963 124.936 30.303C127.112 31.967 128.371 34.3563 128.712 37.471H123.4C123.187 35.8497 122.483 34.591 121.288 33.695C120.136 32.7563 118.579 32.287 116.616 32.287C114.696 32.287 113.203 32.6923 112.136 33.503C111.112 34.3137 110.6 35.3803 110.6 36.703C110.6 37.983 111.261 38.9857 112.584 39.711C113.949 40.4363 115.784 41.055 118.088 41.567C120.051 41.9937 121.907 42.527 123.656 43.167C125.448 43.7643 126.899 44.6817 128.008 45.919C129.16 47.1137 129.736 48.863 129.736 51.167C129.779 54.0257 128.691 56.3937 126.472 58.271C124.296 60.1057 121.331 61.023 117.576 61.023Z" fill="#14142B"/>
<path d="M146.976 61.023C144.331 61.023 142.133 60.575 140.384 59.679C138.635 58.783 137.333 57.5883 136.48 56.095C135.627 54.6017 135.2 52.9803 135.2 51.231C135.2 47.9883 136.437 45.4923 138.912 43.743C141.387 41.9937 144.757 41.119 149.024 41.119H157.6V40.735C157.6 37.9617 156.875 35.871 155.424 34.463C153.973 33.0123 152.032 32.287 149.6 32.287C147.509 32.287 145.696 32.8203 144.16 33.887C142.667 34.911 141.728 36.4257 141.344 38.431H135.84C136.053 36.127 136.821 34.1857 138.144 32.607C139.509 31.0283 141.195 29.8337 143.2 29.023C145.205 28.1697 147.339 27.743 149.6 27.743C154.037 27.743 157.365 28.9377 159.584 31.327C161.845 33.6737 162.976 36.8097 162.976 40.735V60.255H158.176L157.856 54.559C156.96 56.351 155.637 57.887 153.888 59.167C152.181 60.4043 149.877 61.023 146.976 61.023ZM147.808 56.479C149.856 56.479 151.605 55.9457 153.056 54.879C154.549 53.8123 155.68 52.4257 156.448 50.719C157.216 49.0123 157.6 47.2203 157.6 45.343V45.279H149.472C146.315 45.279 144.075 45.8337 142.752 46.943C141.472 48.0097 140.832 49.3537 140.832 50.975C140.832 52.639 141.429 53.983 142.624 55.007C143.861 55.9883 145.589 56.479 147.808 56.479Z" fill="#14142B"/>
<path d="M170.041 60.255V14.175H175.417V60.255H170.041Z" fill="#14142B"/>
<path d="M197.692 61.023C194.706 61.023 192.018 60.3403 189.628 58.975C187.239 57.6097 185.34 55.6897 183.932 53.215C182.567 50.6977 181.884 47.7537 181.884 44.383C181.884 41.0123 182.588 38.0897 183.996 35.615C185.404 33.0977 187.303 31.1563 189.692 29.791C192.124 28.4257 194.834 27.743 197.82 27.743C200.807 27.743 203.495 28.4257 205.884 29.791C208.274 31.1563 210.151 33.0977 211.516 35.615C212.924 38.0897 213.628 41.0123 213.628 44.383C213.628 47.7537 212.924 50.6977 211.516 53.215C210.108 55.6897 208.188 57.6097 205.756 58.975C203.367 60.3403 200.679 61.023 197.692 61.023ZM197.692 56.415C199.527 56.415 201.234 55.967 202.812 55.071C204.391 54.175 205.671 52.831 206.652 51.039C207.634 49.247 208.124 47.0283 208.124 44.383C208.124 41.7377 207.634 39.519 206.652 37.727C205.714 35.935 204.455 34.591 202.876 33.695C201.298 32.799 199.612 32.351 197.82 32.351C195.986 32.351 194.279 32.799 192.7 33.695C191.122 34.591 189.842 35.935 188.86 37.727C187.879 39.519 187.388 41.7377 187.388 44.383C187.388 47.0283 187.879 49.247 188.86 51.039C189.842 52.831 191.1 54.175 192.636 55.071C194.215 55.967 195.9 56.415 197.692 56.415Z" fill="#14142B"/>
<path d="M220.103 60.255V28.511H224.967L225.287 34.207C226.311 32.2017 227.783 30.623 229.703 29.471C231.623 28.319 233.799 27.743 236.231 27.743C239.986 27.743 242.973 28.895 245.191 31.199C247.453 33.4603 248.583 36.959 248.583 41.695V60.255H243.207V42.271C243.207 35.6577 240.477 32.351 235.015 32.351C232.285 32.351 230.002 33.3537 228.167 35.359C226.375 37.3217 225.479 40.1377 225.479 43.807V60.255H220.103Z" fill="#14142B"/>
<path d="M268.466 60.255L279.474 44.383L268.466 28.511H274.29L283.186 41.631L292.146 28.511H297.906L286.898 44.383L297.906 60.255H292.146L283.186 47.135L274.29 60.255H268.466Z" fill="#14142B"/>
</svg>
